<svg xmlns="http://www.w3.org/2000/svg" xmlns:xlink="http://www.w3.org/1999/xlink" width="800" zoomAndPan="magnify" viewBox="0 0 600 299.999988" height="400" preserveAspectRatio="xMidYMid meet" version="1.0"><defs><g/><clipPath id="703b855222"><path d="M 110 151 L 141 151 L 141 161.390625 L 110 161.390625 Z M 110 151 " clip-rule="nonzero"/></clipPath><clipPath id="48e777eba7"><path d="M 110 150 L 141 150 L 141 161.390625 L 110 161.390625 Z M 110 150 " clip-rule="nonzero"/></clipPath></defs><path fill="#ff3131" d="M 223.546875 128.015625 C 223.546875 128.015625 137.417969 122.242188 90 160.875 C 90 160.875 116.515625 129.074219 184.996094 122.242188 C 214.601562 110.53125 244.695312 96.214844 279.585938 92.148438 C 314.476562 88.082031 374.335938 94.507812 410.125 104.917969 C 410.125 104.917969 347.496094 123.300781 313.988281 121.753906 C 338.550781 120.371094 369.621094 106.300781 369.621094 106.300781 C 329.117188 95.484375 301.707031 94.507812 272.429688 99.875 C 243.148438 105.324219 196.871094 122.648438 196.871094 122.648438 C 202.808594 124.761719 223.546875 128.015625 223.546875 128.015625 Z M 493.164062 118.824219 C 493.164062 118.824219 504.714844 116.957031 507.964844 111.996094 C 493.328125 115.898438 441.597656 112.808594 425.578125 108.414062 C 403.375 119.640625 346.441406 128.421875 301.058594 132.570312 C 410.125 125.820312 484.054688 93.777344 506.015625 157.785156 C 510 135.011719 493.164062 118.824219 493.164062 118.824219 Z M 493.164062 118.824219 " fill-opacity="1" fill-rule="nonzero"/><g clip-path="url(#703b855222)"><path fill="#ff3131" d="M 110.25 161.117188 C 110.25 161.117188 116.109375 152.660156 140.019531 151.113281 C 140.019531 151.113281 135.300781 155.996094 132.457031 157.945312 C 129.609375 159.898438 125.949219 158.839844 120.175781 159.492188 C 114.316406 160.0625 110.25 161.117188 110.25 161.117188 Z M 110.25 161.117188 " fill-opacity="1" fill-rule="nonzero"/></g><g clip-path="url(#48e777eba7)"><path fill="#ff3131" d="M 110.25 161.199219 C 110.171875 161.199219 110.171875 161.199219 110.25 161.199219 C 110.171875 161.117188 110.171875 161.117188 110.171875 161.039062 C 110.171875 161.039062 111.714844 158.839844 116.109375 156.5625 C 120.175781 154.449219 127.574219 151.765625 139.9375 150.953125 C 139.9375 150.953125 140.019531 150.953125 140.019531 151.035156 C 140.019531 151.035156 140.019531 151.113281 140.019531 151.113281 C 139.9375 151.195312 135.300781 155.996094 132.457031 157.945312 C 130.585938 159.25 128.308594 159.25 125.460938 159.25 C 123.914062 159.25 122.125 159.25 120.09375 159.492188 C 114.398438 160.144531 110.25 161.199219 110.25 161.199219 Z M 139.773438 151.277344 C 127.574219 152.089844 120.253906 154.695312 116.269531 156.808594 C 112.691406 158.679688 110.984375 160.46875 110.496094 161.039062 C 111.472656 160.792969 115.214844 159.898438 120.175781 159.410156 C 122.207031 159.167969 123.996094 159.167969 125.542969 159.167969 C 128.46875 159.167969 130.585938 159.167969 132.457031 157.867188 C 134.894531 156.15625 138.878906 152.089844 139.773438 151.277344 Z M 139.773438 151.277344 " fill-opacity="1" fill-rule="nonzero"/></g><path fill="#ff3131" d="M 417.199219 153.066406 C 419.640625 146.640625 424.355469 140.867188 430.539062 136.882812 C 436.558594 132.816406 444.039062 130.539062 451.523438 130.457031 L 451.601562 130.457031 C 459.167969 130.457031 466.648438 132.652344 472.667969 136.554688 C 478.851562 140.460938 483.648438 146.152344 486.167969 152.578125 C 481.613281 147.210938 476.410156 142.980469 470.554688 140.136719 C 464.699219 137.289062 458.273438 135.742188 452.089844 135.742188 C 451.929688 135.742188 451.765625 135.742188 451.601562 135.742188 L 451.359375 135.742188 C 445.097656 135.742188 438.589844 137.371094 432.570312 140.378906 C 426.796875 143.308594 421.589844 147.535156 417.199219 153.066406 Z M 417.199219 153.066406 " fill-opacity="1" fill-rule="nonzero"/><path fill="#ff3131" d="M 451.601562 130.457031 C 459.167969 130.457031 466.570312 132.652344 472.585938 136.554688 C 478.6875 140.460938 483.402344 145.992188 485.925781 152.253906 C 481.535156 146.96875 476.328125 142.902344 470.636719 140.054688 C 464.777344 137.207031 458.355469 135.660156 452.089844 135.660156 C 451.929688 135.660156 451.765625 135.660156 451.601562 135.660156 C 451.523438 135.660156 451.441406 135.660156 451.359375 135.660156 C 445.097656 135.660156 438.589844 137.289062 432.570312 140.296875 C 426.878906 143.226562 421.753906 147.375 417.363281 152.742188 C 419.882812 146.480469 424.519531 140.867188 430.539062 136.882812 C 436.558594 132.816406 444.039062 130.539062 451.601562 130.457031 M 451.601562 130.375 C 451.601562 130.375 451.523438 130.375 451.601562 130.375 C 444.039062 130.457031 436.636719 132.652344 430.457031 136.800781 C 424.277344 140.867188 419.394531 146.722656 416.957031 153.390625 C 421.347656 147.863281 426.632812 143.46875 432.570312 140.460938 C 438.425781 137.53125 444.851562 135.824219 451.277344 135.824219 C 451.359375 135.824219 451.441406 135.824219 451.523438 135.824219 C 451.683594 135.824219 451.847656 135.824219 452.011719 135.824219 C 458.355469 135.824219 464.699219 137.371094 470.472656 140.214844 C 476.410156 143.144531 481.777344 147.535156 486.25 152.984375 C 483.730469 146.398438 478.769531 140.542969 472.585938 136.554688 C 466.488281 132.410156 459.003906 130.375 451.601562 130.375 Z M 451.601562 130.375 " fill-opacity="1" fill-rule="nonzero"/><path fill="#ff3131" d="M 142.867188 159.65625 C 145.304688 153.230469 150.023438 147.453125 156.203125 143.46875 C 162.222656 139.402344 169.707031 137.125 177.1875 137.042969 L 177.269531 137.042969 C 184.832031 137.042969 192.316406 139.242188 198.335938 143.144531 C 204.515625 147.128906 209.316406 152.824219 211.917969 159.167969 C 207.363281 153.800781 202.15625 149.570312 196.300781 146.722656 C 190.445312 143.875 184.019531 142.332031 177.757812 142.332031 C 177.59375 142.332031 177.433594 142.332031 177.269531 142.332031 L 177.027344 142.332031 C 170.761719 142.332031 164.257812 143.957031 158.238281 146.96875 C 152.464844 149.894531 147.257812 154.207031 142.867188 159.65625 Z M 142.867188 159.65625 " fill-opacity="1" fill-rule="nonzero"/><path fill="#ff3131" d="M 177.269531 137.125 C 184.832031 137.125 192.234375 139.320312 198.253906 143.226562 C 204.351562 147.128906 209.070312 152.660156 211.589844 158.921875 C 207.117188 153.636719 201.914062 149.570312 196.21875 146.722656 C 190.363281 143.875 183.9375 142.332031 177.675781 142.332031 C 177.511719 142.332031 177.351562 142.332031 177.1875 142.332031 C 177.105469 142.332031 177.027344 142.332031 176.945312 142.332031 C 170.679688 142.332031 164.175781 143.957031 158.15625 146.96875 C 152.464844 149.894531 147.339844 154.042969 142.949219 159.410156 C 145.46875 153.148438 150.105469 147.535156 156.125 143.550781 C 162.222656 139.402344 169.707031 137.207031 177.269531 137.125 M 177.269531 136.964844 C 169.707031 137.042969 162.304688 139.242188 156.125 143.386719 C 149.941406 147.453125 145.0625 153.3125 142.621094 159.980469 C 147.015625 154.449219 152.300781 150.058594 158.238281 147.046875 C 164.09375 144.121094 170.519531 142.414062 176.945312 142.414062 C 177.027344 142.414062 177.105469 142.414062 177.1875 142.414062 C 177.351562 142.414062 177.511719 142.414062 177.675781 142.414062 C 184.019531 142.414062 190.363281 143.957031 196.136719 146.804688 C 202.074219 149.730469 207.445312 154.125 211.917969 159.574219 C 209.394531 152.984375 204.433594 147.128906 198.253906 143.144531 C 192.152344 139.078125 184.753906 136.964844 177.269531 136.964844 Z M 177.269531 136.964844 " fill-opacity="1" fill-rule="nonzero"/><path fill="#ff3131" d="M 260.066406 142.574219 C 260.066406 142.574219 297.558594 149.082031 334.402344 145.585938 C 368.808594 142.332031 395.484375 130.78125 416.957031 132.082031 C 416.957031 132.082031 402.964844 137.289062 395.402344 150.21875 C 395.402344 150.21875 382.472656 147.941406 343.105469 150.628906 C 303.824219 153.230469 271.128906 145.585938 260.066406 142.574219 Z M 260.066406 142.574219 " fill-opacity="1" fill-rule="nonzero"/><path fill="#ff3131" d="M 326.515625 151.195312 C 295.363281 151.195312 270.3125 145.421875 260.066406 142.574219 C 259.984375 142.574219 259.984375 142.492188 259.984375 142.492188 C 259.984375 142.414062 260.066406 142.414062 260.066406 142.414062 C 260.472656 142.492188 297.964844 148.917969 334.402344 145.421875 C 350.34375 143.875 364.742188 140.625 377.429688 137.695312 C 392.476562 134.199219 405.40625 131.269531 416.957031 132 C 417.039062 132 417.039062 132 417.039062 132.082031 C 417.039062 132.082031 417.039062 132.164062 416.957031 132.164062 C 416.792969 132.246094 402.964844 137.53125 395.484375 150.21875 C 395.484375 150.21875 395.402344 150.300781 395.402344 150.300781 C 395.238281 150.300781 381.984375 148.023438 343.105469 150.707031 C 337.492188 151.035156 331.882812 151.195312 326.515625 151.195312 Z M 261.691406 142.902344 C 274.867188 146.398438 306.019531 152.984375 343.105469 150.464844 C 380.679688 147.863281 394.34375 149.894531 395.402344 150.058594 C 402.234375 138.425781 414.351562 133.058594 416.550781 132.082031 C 405.082031 131.433594 392.230469 134.441406 377.429688 137.859375 C 364.742188 140.785156 350.34375 144.121094 334.320312 145.585938 C 302.359375 148.675781 269.417969 144.121094 261.691406 142.902344 Z M 261.691406 142.902344 " fill-opacity="1" fill-rule="nonzero"/><path fill="#ff3131" d="M 226.394531 128.421875 L 228.019531 125.171875 L 226.800781 125.171875 L 226.800781 124.4375 L 238.59375 124.4375 C 238.59375 124.4375 243.230469 123.949219 243.148438 119.964844 C 243.066406 115.980469 241.117188 112.480469 236.640625 112.480469 C 232.167969 112.480469 223.710938 115.816406 221.921875 119.152344 C 220.132812 122.484375 221.109375 123.542969 223.628906 124.195312 L 220.945312 127.527344 Z M 226.394531 128.421875 " fill-opacity="1" fill-rule="nonzero"/><g fill="#ff9e37" fill-opacity="0.4"><g transform="translate(47.269341, 205.954042)"><g><path d="M 10.53125 -21.515625 C 14.03125 -21.515625 16.695312 -20.609375 18.53125 -18.796875 C 20.375 -16.992188 21.296875 -14.316406 21.296875 -10.765625 C 21.296875 -7.210938 20.375 -4.53125 18.53125 -2.71875 C 16.695312 -0.90625 14.03125 0 10.53125 0 L 2.796875 0 L 2.796875 -21.515625 Z M 10.28125 -3.578125 C 12.5 -3.578125 14.15625 -4.140625 15.25 -5.265625 C 16.351562 -6.398438 16.90625 -8.234375 16.90625 -10.765625 C 16.90625 -13.285156 16.351562 -15.109375 15.25 -16.234375 C 14.15625 -17.367188 12.5 -17.9375 10.28125 -17.9375 L 7.046875 -17.9375 L 7.046875 -3.578125 Z M 10.28125 -3.578125 "/></g></g></g><g fill="#ff9e37" fill-opacity="0.4"><g transform="translate(70.254294, 205.954042)"><g><path d="M 11.734375 0.3125 C 9.753906 0.3125 8.007812 -0.0859375 6.5 -0.890625 C 5 -1.703125 3.820312 -2.929688 2.96875 -4.578125 C 2.113281 -6.234375 1.6875 -8.296875 1.6875 -10.765625 C 1.6875 -13.222656 2.113281 -15.273438 2.96875 -16.921875 C 3.820312 -18.578125 5 -19.804688 6.5 -20.609375 C 8.007812 -21.421875 9.753906 -21.828125 11.734375 -21.828125 C 13.703125 -21.828125 15.4375 -21.425781 16.9375 -20.625 C 18.4375 -19.820312 19.609375 -18.59375 20.453125 -16.9375 C 21.304688 -15.28125 21.734375 -13.222656 21.734375 -10.765625 C 21.734375 -8.296875 21.304688 -6.234375 20.453125 -4.578125 C 19.609375 -2.921875 18.4375 -1.691406 16.9375 -0.890625 C 15.4375 -0.0859375 13.703125 0.3125 11.734375 0.3125 Z M 11.734375 -3.390625 C 13.554688 -3.390625 14.945312 -3.972656 15.90625 -5.140625 C 16.863281 -6.316406 17.34375 -8.191406 17.34375 -10.765625 C 17.34375 -13.328125 16.863281 -15.195312 15.90625 -16.375 C 14.945312 -17.550781 13.554688 -18.140625 11.734375 -18.140625 C 9.898438 -18.140625 8.5 -17.550781 7.53125 -16.375 C 6.5625 -15.195312 6.078125 -13.328125 6.078125 -10.765625 C 6.078125 -8.191406 6.5625 -6.316406 7.53125 -5.140625 C 8.5 -3.972656 9.898438 -3.390625 11.734375 -3.390625 Z M 11.734375 -3.390625 "/></g></g></g><g fill="#ff9e37" fill-opacity="0.4"><g transform="translate(93.680417, 205.954042)"><g><path d="M 6.703125 0 L 2.796875 0 L 2.796875 -21.515625 L 8.359375 -21.515625 L 13.796875 -5.703125 L 14.109375 -5.703125 L 19.53125 -21.515625 L 24.953125 -21.515625 L 24.953125 0 L 20.921875 0 L 20.921875 -14.21875 L 20.5625 -14.28125 L 15.578125 0 L 12.03125 0 L 7.0625 -14.28125 L 6.703125 -14.21875 Z M 6.703125 0 "/></g></g></g><g fill="#ff9e37" fill-opacity="0.4"><g transform="translate(121.430002, 205.954042)"><g><path d="M 7.046875 -9.453125 L 7.046875 -3.5625 L 17.328125 -3.5625 L 17.328125 0 L 2.796875 0 L 2.796875 -21.515625 L 17.09375 -21.515625 L 17.09375 -17.953125 L 7.046875 -17.953125 L 7.046875 -12.921875 L 15.828125 -12.921875 L 15.828125 -9.453125 Z M 7.046875 -9.453125 "/></g></g></g><g fill="#ff9e37" fill-opacity="0.4"><g transform="translate(139.915024, 205.954042)"><g><path d="M 9.53125 0.3125 C 8.039062 0.3125 6.710938 0.128906 5.546875 -0.234375 C 4.390625 -0.609375 3.421875 -1.09375 2.640625 -1.6875 C 1.867188 -2.289062 1.28125 -2.953125 0.875 -3.671875 L 3.203125 -6.515625 L 3.578125 -6.515625 C 4.222656 -5.554688 5.039062 -4.789062 6.03125 -4.21875 C 7.03125 -3.65625 8.195312 -3.375 9.53125 -3.375 C 10.675781 -3.375 11.535156 -3.613281 12.109375 -4.09375 C 12.691406 -4.570312 12.984375 -5.234375 12.984375 -6.078125 C 12.984375 -6.585938 12.890625 -7.015625 12.703125 -7.359375 C 12.515625 -7.703125 12.203125 -7.992188 11.765625 -8.234375 C 11.335938 -8.484375 10.753906 -8.695312 10.015625 -8.875 L 7.25 -9.5 C 5.320312 -9.945312 3.882812 -10.679688 2.9375 -11.703125 C 1.988281 -12.734375 1.515625 -14.066406 1.515625 -15.703125 C 1.515625 -16.921875 1.816406 -17.988281 2.421875 -18.90625 C 3.035156 -19.832031 3.921875 -20.550781 5.078125 -21.0625 C 6.242188 -21.570312 7.632812 -21.828125 9.25 -21.828125 C 10.914062 -21.828125 12.335938 -21.609375 13.515625 -21.171875 C 14.703125 -20.734375 15.703125 -20.0625 16.515625 -19.15625 L 14.40625 -16.28125 L 14.046875 -16.28125 C 13.429688 -16.914062 12.726562 -17.390625 11.9375 -17.703125 C 11.15625 -18.023438 10.257812 -18.1875 9.25 -18.1875 C 8.082031 -18.1875 7.195312 -17.976562 6.59375 -17.5625 C 5.988281 -17.15625 5.6875 -16.585938 5.6875 -15.859375 C 5.6875 -15.179688 5.898438 -14.640625 6.328125 -14.234375 C 6.753906 -13.835938 7.488281 -13.523438 8.53125 -13.296875 L 11.359375 -12.71875 C 13.453125 -12.269531 14.96875 -11.519531 15.90625 -10.46875 C 16.851562 -9.414062 17.328125 -8.039062 17.328125 -6.34375 C 17.328125 -5 17.035156 -3.828125 16.453125 -2.828125 C 15.867188 -1.835938 14.992188 -1.066406 13.828125 -0.515625 C 12.660156 0.0351562 11.226562 0.3125 9.53125 0.3125 Z M 9.53125 0.3125 "/></g></g></g><g fill="#ff9e37" fill-opacity="0.4"><g transform="translate(158.385329, 205.954042)"><g><path d="M 17.25 -21.515625 L 17.25 -17.9375 L 11.03125 -17.9375 L 11.03125 0 L 6.796875 0 L 6.796875 -17.9375 L 0.59375 -17.9375 L 0.59375 -21.515625 Z M 17.25 -21.515625 "/></g></g></g><g fill="#ff9e37" fill-opacity="0.4"><g transform="translate(176.208585, 205.954042)"><g><path d="M 7.046875 0 L 2.796875 0 L 2.796875 -21.515625 L 7.046875 -21.515625 Z M 7.046875 0 "/></g></g></g><g fill="#ff9e37" fill-opacity="0.4"><g transform="translate(186.061375, 205.954042)"><g><path d="M 11.765625 0.3125 C 9.773438 0.3125 8.023438 -0.0976562 6.515625 -0.921875 C 5.003906 -1.742188 3.820312 -2.984375 2.96875 -4.640625 C 2.113281 -6.296875 1.6875 -8.335938 1.6875 -10.765625 C 1.6875 -13.179688 2.113281 -15.21875 2.96875 -16.875 C 3.820312 -18.53125 5.003906 -19.769531 6.515625 -20.59375 C 8.023438 -21.414062 9.773438 -21.828125 11.765625 -21.828125 C 13.828125 -21.828125 15.582031 -21.421875 17.03125 -20.609375 C 18.476562 -19.796875 19.515625 -18.5625 20.140625 -16.90625 L 17.03125 -15.015625 L 16.65625 -15.03125 C 16.195312 -16.144531 15.570312 -16.941406 14.78125 -17.421875 C 13.988281 -17.910156 12.984375 -18.15625 11.765625 -18.15625 C 9.972656 -18.15625 8.578125 -17.5625 7.578125 -16.375 C 6.578125 -15.195312 6.078125 -13.328125 6.078125 -10.765625 C 6.078125 -8.203125 6.578125 -6.328125 7.578125 -5.140625 C 8.578125 -3.960938 9.972656 -3.375 11.765625 -3.375 C 14.554688 -3.375 16.265625 -4.734375 16.890625 -7.453125 L 17.265625 -7.453125 L 20.390625 -5.8125 C 19.804688 -3.769531 18.800781 -2.238281 17.375 -1.21875 C 15.957031 -0.195312 14.085938 0.3125 11.765625 0.3125 Z M 11.765625 0.3125 "/></g></g></g><g fill="#ff9e37" fill-opacity="0.4"><g transform="translate(207.149287, 205.954042)"><g/></g></g><g fill="#ff9e37" fill-opacity="0.4"><g transform="translate(214.25213, 205.954042)"><g><path d="M 11.765625 0.3125 C 9.773438 0.3125 8.023438 -0.0976562 6.515625 -0.921875 C 5.003906 -1.742188 3.820312 -2.984375 2.96875 -4.640625 C 2.113281 -6.296875 1.6875 -8.335938 1.6875 -10.765625 C 1.6875 -13.179688 2.113281 -15.21875 2.96875 -16.875 C 3.820312 -18.53125 5.003906 -19.769531 6.515625 -20.59375 C 8.023438 -21.414062 9.773438 -21.828125 11.765625 -21.828125 C 13.828125 -21.828125 15.582031 -21.421875 17.03125 -20.609375 C 18.476562 -19.796875 19.515625 -18.5625 20.140625 -16.90625 L 17.03125 -15.015625 L 16.65625 -15.03125 C 16.195312 -16.144531 15.570312 -16.941406 14.78125 -17.421875 C 13.988281 -17.910156 12.984375 -18.15625 11.765625 -18.15625 C 9.972656 -18.15625 8.578125 -17.5625 7.578125 -16.375 C 6.578125 -15.195312 6.078125 -13.328125 6.078125 -10.765625 C 6.078125 -8.203125 6.578125 -6.328125 7.578125 -5.140625 C 8.578125 -3.960938 9.972656 -3.375 11.765625 -3.375 C 14.554688 -3.375 16.265625 -4.734375 16.890625 -7.453125 L 17.265625 -7.453125 L 20.390625 -5.8125 C 19.804688 -3.769531 18.800781 -2.238281 17.375 -1.21875 C 15.957031 -0.195312 14.085938 0.3125 11.765625 0.3125 Z M 11.765625 0.3125 "/></g></g></g><g fill="#ff9e37" fill-opacity="0.4"><g transform="translate(235.340042, 205.954042)"><g><path d="M 20.640625 0 L 16.171875 0 L 14.5625 -4.953125 L 6.3125 -4.953125 L 4.6875 0 L 0.328125 0 L 7.75 -21.515625 L 13.21875 -21.515625 Z M 10.234375 -17.03125 L 7.46875 -8.53125 L 13.375 -8.53125 L 10.59375 -17.03125 Z M 10.234375 -17.03125 "/></g></g></g><g fill="#ff9e37" fill-opacity="0.4"><g transform="translate(256.295615, 205.954042)"><g><path d="M 2.796875 0 L 2.796875 -21.515625 L 11.4375 -21.515625 C 13.664062 -21.515625 15.34375 -21 16.46875 -19.96875 C 17.601562 -18.945312 18.171875 -17.535156 18.171875 -15.734375 C 18.171875 -14.429688 17.835938 -13.359375 17.171875 -12.515625 C 16.515625 -11.679688 15.53125 -11.046875 14.21875 -10.609375 L 14.21875 -10.296875 C 14.894531 -10.003906 15.441406 -9.566406 15.859375 -8.984375 C 16.273438 -8.410156 16.671875 -7.554688 17.046875 -6.421875 L 19.1875 0 L 14.8125 0 L 12.71875 -6.4375 C 12.5 -7.082031 12.253906 -7.582031 11.984375 -7.9375 C 11.710938 -8.300781 11.367188 -8.5625 10.953125 -8.71875 C 10.535156 -8.882812 9.992188 -8.96875 9.328125 -8.96875 L 7.046875 -8.96875 L 7.046875 0 Z M 10.921875 -12.328125 C 12.984375 -12.328125 14.015625 -13.289062 14.015625 -15.21875 C 14.015625 -17.164062 12.984375 -18.140625 10.921875 -18.140625 L 7.046875 -18.140625 L 7.046875 -12.328125 Z M 10.921875 -12.328125 "/></g></g></g><g fill="#ff9e37" fill-opacity="0.4"><g transform="translate(276.398259, 205.954042)"><g/></g></g><g fill="#ff9e37" fill-opacity="0.4"><g transform="translate(283.501102, 205.954042)"><g><path d="M 2.796875 0 L 2.796875 -21.515625 L 11.4375 -21.515625 C 13.664062 -21.515625 15.34375 -21 16.46875 -19.96875 C 17.601562 -18.945312 18.171875 -17.535156 18.171875 -15.734375 C 18.171875 -14.429688 17.835938 -13.359375 17.171875 -12.515625 C 16.515625 -11.679688 15.53125 -11.046875 14.21875 -10.609375 L 14.21875 -10.296875 C 14.894531 -10.003906 15.441406 -9.566406 15.859375 -8.984375 C 16.273438 -8.410156 16.671875 -7.554688 17.046875 -6.421875 L 19.1875 0 L 14.8125 0 L 12.71875 -6.4375 C 12.5 -7.082031 12.253906 -7.582031 11.984375 -7.9375 C 11.710938 -8.300781 11.367188 -8.5625 10.953125 -8.71875 C 10.535156 -8.882812 9.992188 -8.96875 9.328125 -8.96875 L 7.046875 -8.96875 L 7.046875 0 Z M 10.921875 -12.328125 C 12.984375 -12.328125 14.015625 -13.289062 14.015625 -15.21875 C 14.015625 -17.164062 12.984375 -18.140625 10.921875 -18.140625 L 7.046875 -18.140625 L 7.046875 -12.328125 Z M 10.921875 -12.328125 "/></g></g></g><g fill="#ff9e37" fill-opacity="0.4"><g transform="translate(303.603747, 205.954042)"><g><path d="M 7.046875 -9.453125 L 7.046875 -3.5625 L 17.328125 -3.5625 L 17.328125 0 L 2.796875 0 L 2.796875 -21.515625 L 17.09375 -21.515625 L 17.09375 -17.953125 L 7.046875 -17.953125 L 7.046875 -12.921875 L 15.828125 -12.921875 L 15.828125 -9.453125 Z M 7.046875 -9.453125 "/></g></g></g><g fill="#ff9e37" fill-opacity="0.4"><g transform="translate(322.088769, 205.954042)"><g><path d="M 6.921875 0 L 2.796875 0 L 2.796875 -21.515625 L 7.671875 -21.515625 L 16.3125 -7.65625 L 16.6875 -7.71875 L 16.6875 -21.515625 L 20.78125 -21.515625 L 20.78125 0 L 16.421875 0 L 7.28125 -14.8125 L 6.921875 -14.75 Z M 6.921875 0 "/></g></g></g><g fill="#ff9e37" fill-opacity="0.4"><g transform="translate(345.661948, 205.954042)"><g><path d="M 17.25 -21.515625 L 17.25 -17.9375 L 11.03125 -17.9375 L 11.03125 0 L 6.796875 0 L 6.796875 -17.9375 L 0.59375 -17.9375 L 0.59375 -21.515625 Z M 17.25 -21.515625 "/></g></g></g><g fill="#ff9e37" fill-opacity="0.4"><g transform="translate(363.485204, 205.954042)"><g><path d="M 20.640625 0 L 16.171875 0 L 14.5625 -4.953125 L 6.3125 -4.953125 L 4.6875 0 L 0.328125 0 L 7.75 -21.515625 L 13.21875 -21.515625 Z M 10.234375 -17.03125 L 7.46875 -8.53125 L 13.375 -8.53125 L 10.59375 -17.03125 Z M 10.234375 -17.03125 "/></g></g></g><g fill="#ff9e37" fill-opacity="0.4"><g transform="translate(384.440776, 205.954042)"><g><path d="M 7.046875 -21.515625 L 7.046875 -3.5625 L 16.71875 -3.5625 L 16.71875 0 L 2.796875 0 L 2.796875 -21.515625 Z M 7.046875 -21.515625 "/></g></g></g><g fill="#ff9e37" fill-opacity="0.4"><g transform="translate(401.852274, 205.954042)"><g/></g></g><g fill="#ff9e37" fill-opacity="0.4"><g transform="translate(408.955117, 205.954042)"><g><path d="M 9.53125 0.3125 C 8.039062 0.3125 6.710938 0.128906 5.546875 -0.234375 C 4.390625 -0.609375 3.421875 -1.09375 2.640625 -1.6875 C 1.867188 -2.289062 1.28125 -2.953125 0.875 -3.671875 L 3.203125 -6.515625 L 3.578125 -6.515625 C 4.222656 -5.554688 5.039062 -4.789062 6.03125 -4.21875 C 7.03125 -3.65625 8.195312 -3.375 9.53125 -3.375 C 10.675781 -3.375 11.535156 -3.613281 12.109375 -4.09375 C 12.691406 -4.570312 12.984375 -5.234375 12.984375 -6.078125 C 12.984375 -6.585938 12.890625 -7.015625 12.703125 -7.359375 C 12.515625 -7.703125 12.203125 -7.992188 11.765625 -8.234375 C 11.335938 -8.484375 10.753906 -8.695312 10.015625 -8.875 L 7.25 -9.5 C 5.320312 -9.945312 3.882812 -10.679688 2.9375 -11.703125 C 1.988281 -12.734375 1.515625 -14.066406 1.515625 -15.703125 C 1.515625 -16.921875 1.816406 -17.988281 2.421875 -18.90625 C 3.035156 -19.832031 3.921875 -20.550781 5.078125 -21.0625 C 6.242188 -21.570312 7.632812 -21.828125 9.25 -21.828125 C 10.914062 -21.828125 12.335938 -21.609375 13.515625 -21.171875 C 14.703125 -20.734375 15.703125 -20.0625 16.515625 -19.15625 L 14.40625 -16.28125 L 14.046875 -16.28125 C 13.429688 -16.914062 12.726562 -17.390625 11.9375 -17.703125 C 11.15625 -18.023438 10.257812 -18.1875 9.25 -18.1875 C 8.082031 -18.1875 7.195312 -17.976562 6.59375 -17.5625 C 5.988281 -17.15625 5.6875 -16.585938 5.6875 -15.859375 C 5.6875 -15.179688 5.898438 -14.640625 6.328125 -14.234375 C 6.753906 -13.835938 7.488281 -13.523438 8.53125 -13.296875 L 11.359375 -12.71875 C 13.453125 -12.269531 14.96875 -11.519531 15.90625 -10.46875 C 16.851562 -9.414062 17.328125 -8.039062 17.328125 -6.34375 C 17.328125 -5 17.035156 -3.828125 16.453125 -2.828125 C 15.867188 -1.835938 14.992188 -1.066406 13.828125 -0.515625 C 12.660156 0.0351562 11.226562 0.3125 9.53125 0.3125 Z M 9.53125 0.3125 "/></g></g></g><g fill="#ff9e37" fill-opacity="0.4"><g transform="translate(427.425422, 205.954042)"><g><path d="M 11.40625 0.3125 C 8.445312 0.3125 6.25 -0.390625 4.8125 -1.796875 C 3.375 -3.210938 2.65625 -5.300781 2.65625 -8.0625 L 2.65625 -21.515625 L 6.828125 -21.515625 L 6.828125 -8.09375 C 6.828125 -6.519531 7.203125 -5.34375 7.953125 -4.5625 C 8.710938 -3.78125 9.863281 -3.390625 11.40625 -3.390625 C 14.457031 -3.390625 15.984375 -4.957031 15.984375 -8.09375 L 15.984375 -21.515625 L 20.140625 -21.515625 L 20.140625 -8.0625 C 20.140625 -5.300781 19.421875 -3.210938 17.984375 -1.796875 C 16.554688 -0.390625 14.363281 0.3125 11.40625 0.3125 Z M 11.40625 0.3125 "/></g></g></g><g fill="#ff9e37" fill-opacity="0.4"><g transform="translate(450.219167, 205.954042)"><g><path d="M 11.109375 -21.515625 C 12.648438 -21.515625 13.96875 -21.234375 15.0625 -20.671875 C 16.15625 -20.109375 16.976562 -19.316406 17.53125 -18.296875 C 18.09375 -17.285156 18.375 -16.109375 18.375 -14.765625 C 18.375 -13.421875 18.09375 -12.242188 17.53125 -11.234375 C 16.976562 -10.222656 16.15625 -9.429688 15.0625 -8.859375 C 13.96875 -8.296875 12.648438 -8.015625 11.109375 -8.015625 L 7.046875 -8.015625 L 7.046875 0 L 2.796875 0 L 2.796875 -21.515625 Z M 10.546875 -11.390625 C 12.910156 -11.390625 14.09375 -12.515625 14.09375 -14.765625 C 14.09375 -17.015625 12.910156 -18.140625 10.546875 -18.140625 L 7.046875 -18.140625 L 7.046875 -11.390625 Z M 10.546875 -11.390625 "/></g></g></g><g fill="#ff9e37" fill-opacity="0.4"><g transform="translate(469.865925, 205.954042)"><g><path d="M 11.109375 -21.515625 C 12.648438 -21.515625 13.96875 -21.234375 15.0625 -20.671875 C 16.15625 -20.109375 16.976562 -19.316406 17.53125 -18.296875 C 18.09375 -17.285156 18.375 -16.109375 18.375 -14.765625 C 18.375 -13.421875 18.09375 -12.242188 17.53125 -11.234375 C 16.976562 -10.222656 16.15625 -9.429688 15.0625 -8.859375 C 13.96875 -8.296875 12.648438 -8.015625 11.109375 -8.015625 L 7.046875 -8.015625 L 7.046875 0 L 2.796875 0 L 2.796875 -21.515625 Z M 10.546875 -11.390625 C 12.910156 -11.390625 14.09375 -12.515625 14.09375 -14.765625 C 14.09375 -17.015625 12.910156 -18.140625 10.546875 -18.140625 L 7.046875 -18.140625 L 7.046875 -11.390625 Z M 10.546875 -11.390625 "/></g></g></g><g fill="#ff9e37" fill-opacity="0.4"><g transform="translate(489.512682, 205.954042)"><g><path d="M 7.046875 -21.515625 L 7.046875 -3.5625 L 16.71875 -3.5625 L 16.71875 0 L 2.796875 0 L 2.796875 -21.515625 Z M 7.046875 -21.515625 "/></g></g></g><g fill="#ff9e37" fill-opacity="0.4"><g transform="translate(506.92418, 205.954042)"><g><path d="M 7.046875 0 L 2.796875 0 L 2.796875 -21.515625 L 7.046875 -21.515625 Z M 7.046875 0 "/></g></g></g><g fill="#ff9e37" fill-opacity="0.4"><g transform="translate(516.776993, 205.954042)"><g><path d="M 7.046875 -9.453125 L 7.046875 -3.5625 L 17.328125 -3.5625 L 17.328125 0 L 2.796875 0 L 2.796875 -21.515625 L 17.09375 -21.515625 L 17.09375 -17.953125 L 7.046875 -17.953125 L 7.046875 -12.921875 L 15.828125 -12.921875 L 15.828125 -9.453125 Z M 7.046875 -9.453125 "/></g></g></g><g fill="#ff9e37" fill-opacity="0.4"><g transform="translate(535.262038, 205.954042)"><g><path d="M 2.796875 0 L 2.796875 -21.515625 L 11.4375 -21.515625 C 13.664062 -21.515625 15.34375 -21 16.46875 -19.96875 C 17.601562 -18.945312 18.171875 -17.535156 18.171875 -15.734375 C 18.171875 -14.429688 17.835938 -13.359375 17.171875 -12.515625 C 16.515625 -11.679688 15.53125 -11.046875 14.21875 -10.609375 L 14.21875 -10.296875 C 14.894531 -10.003906 15.441406 -9.566406 15.859375 -8.984375 C 16.273438 -8.410156 16.671875 -7.554688 17.046875 -6.421875 L 19.1875 0 L 14.8125 0 L 12.71875 -6.4375 C 12.5 -7.082031 12.253906 -7.582031 11.984375 -7.9375 C 11.710938 -8.300781 11.367188 -8.5625 10.953125 -8.71875 C 10.535156 -8.882812 9.992188 -8.96875 9.328125 -8.96875 L 7.046875 -8.96875 L 7.046875 0 Z M 10.921875 -12.328125 C 12.984375 -12.328125 14.015625 -13.289062 14.015625 -15.21875 C 14.015625 -17.164062 12.984375 -18.140625 10.921875 -18.140625 L 7.046875 -18.140625 L 7.046875 -12.328125 Z M 10.921875 -12.328125 "/></g></g></g><g fill="#ff9e37" fill-opacity="1"><g transform="translate(45.937509, 204.622205)"><g><path d="M 10.53125 -21.515625 C 14.03125 -21.515625 16.695312 -20.609375 18.53125 -18.796875 C 20.375 -16.992188 21.296875 -14.316406 21.296875 -10.765625 C 21.296875 -7.210938 20.375 -4.53125 18.53125 -2.71875 C 16.695312 -0.90625 14.03125 0 10.53125 0 L 2.796875 0 L 2.796875 -21.515625 Z M 10.28125 -3.578125 C 12.5 -3.578125 14.15625 -4.140625 15.25 -5.265625 C 16.351562 -6.398438 16.90625 -8.234375 16.90625 -10.765625 C 16.90625 -13.285156 16.351562 -15.109375 15.25 -16.234375 C 14.15625 -17.367188 12.5 -17.9375 10.28125 -17.9375 L 7.046875 -17.9375 L 7.046875 -3.578125 Z M 10.28125 -3.578125 "/></g></g></g><g fill="#ff9e37" fill-opacity="1"><g transform="translate(68.922462, 204.622205)"><g><path d="M 11.734375 0.3125 C 9.753906 0.3125 8.007812 -0.0859375 6.5 -0.890625 C 5 -1.703125 3.820312 -2.929688 2.96875 -4.578125 C 2.113281 -6.234375 1.6875 -8.296875 1.6875 -10.765625 C 1.6875 -13.222656 2.113281 -15.273438 2.96875 -16.921875 C 3.820312 -18.578125 5 -19.804688 6.5 -20.609375 C 8.007812 -21.421875 9.753906 -21.828125 11.734375 -21.828125 C 13.703125 -21.828125 15.4375 -21.425781 16.9375 -20.625 C 18.4375 -19.820312 19.609375 -18.59375 20.453125 -16.9375 C 21.304688 -15.28125 21.734375 -13.222656 21.734375 -10.765625 C 21.734375 -8.296875 21.304688 -6.234375 20.453125 -4.578125 C 19.609375 -2.921875 18.4375 -1.691406 16.9375 -0.890625 C 15.4375 -0.0859375 13.703125 0.3125 11.734375 0.3125 Z M 11.734375 -3.390625 C 13.554688 -3.390625 14.945312 -3.972656 15.90625 -5.140625 C 16.863281 -6.316406 17.34375 -8.191406 17.34375 -10.765625 C 17.34375 -13.328125 16.863281 -15.195312 15.90625 -16.375 C 14.945312 -17.550781 13.554688 -18.140625 11.734375 -18.140625 C 9.898438 -18.140625 8.5 -17.550781 7.53125 -16.375 C 6.5625 -15.195312 6.078125 -13.328125 6.078125 -10.765625 C 6.078125 -8.191406 6.5625 -6.316406 7.53125 -5.140625 C 8.5 -3.972656 9.898438 -3.390625 11.734375 -3.390625 Z M 11.734375 -3.390625 "/></g></g></g><g fill="#ff9e37" fill-opacity="1"><g transform="translate(92.348585, 204.622205)"><g><path d="M 6.703125 0 L 2.796875 0 L 2.796875 -21.515625 L 8.359375 -21.515625 L 13.796875 -5.703125 L 14.109375 -5.703125 L 19.53125 -21.515625 L 24.953125 -21.515625 L 24.953125 0 L 20.921875 0 L 20.921875 -14.21875 L 20.5625 -14.28125 L 15.578125 0 L 12.03125 0 L 7.0625 -14.28125 L 6.703125 -14.21875 Z M 6.703125 0 "/></g></g></g><g fill="#ff9e37" fill-opacity="1"><g transform="translate(120.09817, 204.622205)"><g><path d="M 7.046875 -9.453125 L 7.046875 -3.5625 L 17.328125 -3.5625 L 17.328125 0 L 2.796875 0 L 2.796875 -21.515625 L 17.09375 -21.515625 L 17.09375 -17.953125 L 7.046875 -17.953125 L 7.046875 -12.921875 L 15.828125 -12.921875 L 15.828125 -9.453125 Z M 7.046875 -9.453125 "/></g></g></g><g fill="#ff9e37" fill-opacity="1"><g transform="translate(138.583192, 204.622205)"><g><path d="M 9.53125 0.3125 C 8.039062 0.3125 6.710938 0.128906 5.546875 -0.234375 C 4.390625 -0.609375 3.421875 -1.09375 2.640625 -1.6875 C 1.867188 -2.289062 1.28125 -2.953125 0.875 -3.671875 L 3.203125 -6.515625 L 3.578125 -6.515625 C 4.222656 -5.554688 5.039062 -4.789062 6.03125 -4.21875 C 7.03125 -3.65625 8.195312 -3.375 9.53125 -3.375 C 10.675781 -3.375 11.535156 -3.613281 12.109375 -4.09375 C 12.691406 -4.570312 12.984375 -5.234375 12.984375 -6.078125 C 12.984375 -6.585938 12.890625 -7.015625 12.703125 -7.359375 C 12.515625 -7.703125 12.203125 -7.992188 11.765625 -8.234375 C 11.335938 -8.484375 10.753906 -8.695312 10.015625 -8.875 L 7.25 -9.5 C 5.320312 -9.945312 3.882812 -10.679688 2.9375 -11.703125 C 1.988281 -12.734375 1.515625 -14.066406 1.515625 -15.703125 C 1.515625 -16.921875 1.816406 -17.988281 2.421875 -18.90625 C 3.035156 -19.832031 3.921875 -20.550781 5.078125 -21.0625 C 6.242188 -21.570312 7.632812 -21.828125 9.25 -21.828125 C 10.914062 -21.828125 12.335938 -21.609375 13.515625 -21.171875 C 14.703125 -20.734375 15.703125 -20.0625 16.515625 -19.15625 L 14.40625 -16.28125 L 14.046875 -16.28125 C 13.429688 -16.914062 12.726562 -17.390625 11.9375 -17.703125 C 11.15625 -18.023438 10.257812 -18.1875 9.25 -18.1875 C 8.082031 -18.1875 7.195312 -17.976562 6.59375 -17.5625 C 5.988281 -17.15625 5.6875 -16.585938 5.6875 -15.859375 C 5.6875 -15.179688 5.898438 -14.640625 6.328125 -14.234375 C 6.753906 -13.835938 7.488281 -13.523438 8.53125 -13.296875 L 11.359375 -12.71875 C 13.453125 -12.269531 14.96875 -11.519531 15.90625 -10.46875 C 16.851562 -9.414062 17.328125 -8.039062 17.328125 -6.34375 C 17.328125 -5 17.035156 -3.828125 16.453125 -2.828125 C 15.867188 -1.835938 14.992188 -1.066406 13.828125 -0.515625 C 12.660156 0.0351562 11.226562 0.3125 9.53125 0.3125 Z M 9.53125 0.3125 "/></g></g></g><g fill="#ff9e37" fill-opacity="1"><g transform="translate(157.053497, 204.622205)"><g><path d="M 17.25 -21.515625 L 17.25 -17.9375 L 11.03125 -17.9375 L 11.03125 0 L 6.796875 0 L 6.796875 -17.9375 L 0.59375 -17.9375 L 0.59375 -21.515625 Z M 17.25 -21.515625 "/></g></g></g><g fill="#ff9e37" fill-opacity="1"><g transform="translate(174.876753, 204.622205)"><g><path d="M 7.046875 0 L 2.796875 0 L 2.796875 -21.515625 L 7.046875 -21.515625 Z M 7.046875 0 "/></g></g></g><g fill="#ff9e37" fill-opacity="1"><g transform="translate(184.729543, 204.622205)"><g><path d="M 11.765625 0.3125 C 9.773438 0.3125 8.023438 -0.0976562 6.515625 -0.921875 C 5.003906 -1.742188 3.820312 -2.984375 2.96875 -4.640625 C 2.113281 -6.296875 1.6875 -8.335938 1.6875 -10.765625 C 1.6875 -13.179688 2.113281 -15.21875 2.96875 -16.875 C 3.820312 -18.53125 5.003906 -19.769531 6.515625 -20.59375 C 8.023438 -21.414062 9.773438 -21.828125 11.765625 -21.828125 C 13.828125 -21.828125 15.582031 -21.421875 17.03125 -20.609375 C 18.476562 -19.796875 19.515625 -18.5625 20.140625 -16.90625 L 17.03125 -15.015625 L 16.65625 -15.03125 C 16.195312 -16.144531 15.570312 -16.941406 14.78125 -17.421875 C 13.988281 -17.910156 12.984375 -18.15625 11.765625 -18.15625 C 9.972656 -18.15625 8.578125 -17.5625 7.578125 -16.375 C 6.578125 -15.195312 6.078125 -13.328125 6.078125 -10.765625 C 6.078125 -8.203125 6.578125 -6.328125 7.578125 -5.140625 C 8.578125 -3.960938 9.972656 -3.375 11.765625 -3.375 C 14.554688 -3.375 16.265625 -4.734375 16.890625 -7.453125 L 17.265625 -7.453125 L 20.390625 -5.8125 C 19.804688 -3.769531 18.800781 -2.238281 17.375 -1.21875 C 15.957031 -0.195312 14.085938 0.3125 11.765625 0.3125 Z M 11.765625 0.3125 "/></g></g></g><g fill="#ff9e37" fill-opacity="1"><g transform="translate(205.817455, 204.622205)"><g/></g></g><g fill="#ff9e37" fill-opacity="1"><g transform="translate(212.920299, 204.622205)"><g><path d="M 11.765625 0.3125 C 9.773438 0.3125 8.023438 -0.0976562 6.515625 -0.921875 C 5.003906 -1.742188 3.820312 -2.984375 2.96875 -4.640625 C 2.113281 -6.296875 1.6875 -8.335938 1.6875 -10.765625 C 1.6875 -13.179688 2.113281 -15.21875 2.96875 -16.875 C 3.820312 -18.53125 5.003906 -19.769531 6.515625 -20.59375 C 8.023438 -21.414062 9.773438 -21.828125 11.765625 -21.828125 C 13.828125 -21.828125 15.582031 -21.421875 17.03125 -20.609375 C 18.476562 -19.796875 19.515625 -18.5625 20.140625 -16.90625 L 17.03125 -15.015625 L 16.65625 -15.03125 C 16.195312 -16.144531 15.570312 -16.941406 14.78125 -17.421875 C 13.988281 -17.910156 12.984375 -18.15625 11.765625 -18.15625 C 9.972656 -18.15625 8.578125 -17.5625 7.578125 -16.375 C 6.578125 -15.195312 6.078125 -13.328125 6.078125 -10.765625 C 6.078125 -8.203125 6.578125 -6.328125 7.578125 -5.140625 C 8.578125 -3.960938 9.972656 -3.375 11.765625 -3.375 C 14.554688 -3.375 16.265625 -4.734375 16.890625 -7.453125 L 17.265625 -7.453125 L 20.390625 -5.8125 C 19.804688 -3.769531 18.800781 -2.238281 17.375 -1.21875 C 15.957031 -0.195312 14.085938 0.3125 11.765625 0.3125 Z M 11.765625 0.3125 "/></g></g></g><g fill="#ff9e37" fill-opacity="1"><g transform="translate(234.00821, 204.622205)"><g><path d="M 20.640625 0 L 16.171875 0 L 14.5625 -4.953125 L 6.3125 -4.953125 L 4.6875 0 L 0.328125 0 L 7.75 -21.515625 L 13.21875 -21.515625 Z M 10.234375 -17.03125 L 7.46875 -8.53125 L 13.375 -8.53125 L 10.59375 -17.03125 Z M 10.234375 -17.03125 "/></g></g></g><g fill="#ff9e37" fill-opacity="1"><g transform="translate(254.963783, 204.622205)"><g><path d="M 2.796875 0 L 2.796875 -21.515625 L 11.4375 -21.515625 C 13.664062 -21.515625 15.34375 -21 16.46875 -19.96875 C 17.601562 -18.945312 18.171875 -17.535156 18.171875 -15.734375 C 18.171875 -14.429688 17.835938 -13.359375 17.171875 -12.515625 C 16.515625 -11.679688 15.53125 -11.046875 14.21875 -10.609375 L 14.21875 -10.296875 C 14.894531 -10.003906 15.441406 -9.566406 15.859375 -8.984375 C 16.273438 -8.410156 16.671875 -7.554688 17.046875 -6.421875 L 19.1875 0 L 14.8125 0 L 12.71875 -6.4375 C 12.5 -7.082031 12.253906 -7.582031 11.984375 -7.9375 C 11.710938 -8.300781 11.367188 -8.5625 10.953125 -8.71875 C 10.535156 -8.882812 9.992188 -8.96875 9.328125 -8.96875 L 7.046875 -8.96875 L 7.046875 0 Z M 10.921875 -12.328125 C 12.984375 -12.328125 14.015625 -13.289062 14.015625 -15.21875 C 14.015625 -17.164062 12.984375 -18.140625 10.921875 -18.140625 L 7.046875 -18.140625 L 7.046875 -12.328125 Z M 10.921875 -12.328125 "/></g></g></g><g fill="#ff9e37" fill-opacity="1"><g transform="translate(275.066427, 204.622205)"><g/></g></g><g fill="#ff9e37" fill-opacity="1"><g transform="translate(282.169271, 204.622205)"><g><path d="M 2.796875 0 L 2.796875 -21.515625 L 11.4375 -21.515625 C 13.664062 -21.515625 15.34375 -21 16.46875 -19.96875 C 17.601562 -18.945312 18.171875 -17.535156 18.171875 -15.734375 C 18.171875 -14.429688 17.835938 -13.359375 17.171875 -12.515625 C 16.515625 -11.679688 15.53125 -11.046875 14.21875 -10.609375 L 14.21875 -10.296875 C 14.894531 -10.003906 15.441406 -9.566406 15.859375 -8.984375 C 16.273438 -8.410156 16.671875 -7.554688 17.046875 -6.421875 L 19.1875 0 L 14.8125 0 L 12.71875 -6.4375 C 12.5 -7.082031 12.253906 -7.582031 11.984375 -7.9375 C 11.710938 -8.300781 11.367188 -8.5625 10.953125 -8.71875 C 10.535156 -8.882812 9.992188 -8.96875 9.328125 -8.96875 L 7.046875 -8.96875 L 7.046875 0 Z M 10.921875 -12.328125 C 12.984375 -12.328125 14.015625 -13.289062 14.015625 -15.21875 C 14.015625 -17.164062 12.984375 -18.140625 10.921875 -18.140625 L 7.046875 -18.140625 L 7.046875 -12.328125 Z M 10.921875 -12.328125 "/></g></g></g><g fill="#ff9e37" fill-opacity="1"><g transform="translate(302.271915, 204.622205)"><g><path d="M 7.046875 -9.453125 L 7.046875 -3.5625 L 17.328125 -3.5625 L 17.328125 0 L 2.796875 0 L 2.796875 -21.515625 L 17.09375 -21.515625 L 17.09375 -17.953125 L 7.046875 -17.953125 L 7.046875 -12.921875 L 15.828125 -12.921875 L 15.828125 -9.453125 Z M 7.046875 -9.453125 "/></g></g></g><g fill="#ff9e37" fill-opacity="1"><g transform="translate(320.756937, 204.622205)"><g><path d="M 6.921875 0 L 2.796875 0 L 2.796875 -21.515625 L 7.671875 -21.515625 L 16.3125 -7.65625 L 16.6875 -7.71875 L 16.6875 -21.515625 L 20.78125 -21.515625 L 20.78125 0 L 16.421875 0 L 7.28125 -14.8125 L 6.921875 -14.75 Z M 6.921875 0 "/></g></g></g><g fill="#ff9e37" fill-opacity="1"><g transform="translate(344.330116, 204.622205)"><g><path d="M 17.25 -21.515625 L 17.25 -17.9375 L 11.03125 -17.9375 L 11.03125 0 L 6.796875 0 L 6.796875 -17.9375 L 0.59375 -17.9375 L 0.59375 -21.515625 Z M 17.25 -21.515625 "/></g></g></g><g fill="#ff9e37" fill-opacity="1"><g transform="translate(362.153372, 204.622205)"><g><path d="M 20.640625 0 L 16.171875 0 L 14.5625 -4.953125 L 6.3125 -4.953125 L 4.6875 0 L 0.328125 0 L 7.75 -21.515625 L 13.21875 -21.515625 Z M 10.234375 -17.03125 L 7.46875 -8.53125 L 13.375 -8.53125 L 10.59375 -17.03125 Z M 10.234375 -17.03125 "/></g></g></g><g fill="#ff9e37" fill-opacity="1"><g transform="translate(383.108944, 204.622205)"><g><path d="M 7.046875 -21.515625 L 7.046875 -3.5625 L 16.71875 -3.5625 L 16.71875 0 L 2.796875 0 L 2.796875 -21.515625 Z M 7.046875 -21.515625 "/></g></g></g><g fill="#ff9e37" fill-opacity="1"><g transform="translate(400.520442, 204.622205)"><g/></g></g><g fill="#ff9e37" fill-opacity="1"><g transform="translate(407.623286, 204.622205)"><g><path d="M 9.53125 0.3125 C 8.039062 0.3125 6.710938 0.128906 5.546875 -0.234375 C 4.390625 -0.609375 3.421875 -1.09375 2.640625 -1.6875 C 1.867188 -2.289062 1.28125 -2.953125 0.875 -3.671875 L 3.203125 -6.515625 L 3.578125 -6.515625 C 4.222656 -5.554688 5.039062 -4.789062 6.03125 -4.21875 C 7.03125 -3.65625 8.195312 -3.375 9.53125 -3.375 C 10.675781 -3.375 11.535156 -3.613281 12.109375 -4.09375 C 12.691406 -4.570312 12.984375 -5.234375 12.984375 -6.078125 C 12.984375 -6.585938 12.890625 -7.015625 12.703125 -7.359375 C 12.515625 -7.703125 12.203125 -7.992188 11.765625 -8.234375 C 11.335938 -8.484375 10.753906 -8.695312 10.015625 -8.875 L 7.25 -9.5 C 5.320312 -9.945312 3.882812 -10.679688 2.9375 -11.703125 C 1.988281 -12.734375 1.515625 -14.066406 1.515625 -15.703125 C 1.515625 -16.921875 1.816406 -17.988281 2.421875 -18.90625 C 3.035156 -19.832031 3.921875 -20.550781 5.078125 -21.0625 C 6.242188 -21.570312 7.632812 -21.828125 9.25 -21.828125 C 10.914062 -21.828125 12.335938 -21.609375 13.515625 -21.171875 C 14.703125 -20.734375 15.703125 -20.0625 16.515625 -19.15625 L 14.40625 -16.28125 L 14.046875 -16.28125 C 13.429688 -16.914062 12.726562 -17.390625 11.9375 -17.703125 C 11.15625 -18.023438 10.257812 -18.1875 9.25 -18.1875 C 8.082031 -18.1875 7.195312 -17.976562 6.59375 -17.5625 C 5.988281 -17.15625 5.6875 -16.585938 5.6875 -15.859375 C 5.6875 -15.179688 5.898438 -14.640625 6.328125 -14.234375 C 6.753906 -13.835938 7.488281 -13.523438 8.53125 -13.296875 L 11.359375 -12.71875 C 13.453125 -12.269531 14.96875 -11.519531 15.90625 -10.46875 C 16.851562 -9.414062 17.328125 -8.039062 17.328125 -6.34375 C 17.328125 -5 17.035156 -3.828125 16.453125 -2.828125 C 15.867188 -1.835938 14.992188 -1.066406 13.828125 -0.515625 C 12.660156 0.0351562 11.226562 0.3125 9.53125 0.3125 Z M 9.53125 0.3125 "/></g></g></g><g fill="#ff9e37" fill-opacity="1"><g transform="translate(426.09359, 204.622205)"><g><path d="M 11.40625 0.3125 C 8.445312 0.3125 6.25 -0.390625 4.8125 -1.796875 C 3.375 -3.210938 2.65625 -5.300781 2.65625 -8.0625 L 2.65625 -21.515625 L 6.828125 -21.515625 L 6.828125 -8.09375 C 6.828125 -6.519531 7.203125 -5.34375 7.953125 -4.5625 C 8.710938 -3.78125 9.863281 -3.390625 11.40625 -3.390625 C 14.457031 -3.390625 15.984375 -4.957031 15.984375 -8.09375 L 15.984375 -21.515625 L 20.140625 -21.515625 L 20.140625 -8.0625 C 20.140625 -5.300781 19.421875 -3.210938 17.984375 -1.796875 C 16.554688 -0.390625 14.363281 0.3125 11.40625 0.3125 Z M 11.40625 0.3125 "/></g></g></g><g fill="#ff9e37" fill-opacity="1"><g transform="translate(448.887335, 204.622205)"><g><path d="M 11.109375 -21.515625 C 12.648438 -21.515625 13.96875 -21.234375 15.0625 -20.671875 C 16.15625 -20.109375 16.976562 -19.316406 17.53125 -18.296875 C 18.09375 -17.285156 18.375 -16.109375 18.375 -14.765625 C 18.375 -13.421875 18.09375 -12.242188 17.53125 -11.234375 C 16.976562 -10.222656 16.15625 -9.429688 15.0625 -8.859375 C 13.96875 -8.296875 12.648438 -8.015625 11.109375 -8.015625 L 7.046875 -8.015625 L 7.046875 0 L 2.796875 0 L 2.796875 -21.515625 Z M 10.546875 -11.390625 C 12.910156 -11.390625 14.09375 -12.515625 14.09375 -14.765625 C 14.09375 -17.015625 12.910156 -18.140625 10.546875 -18.140625 L 7.046875 -18.140625 L 7.046875 -11.390625 Z M 10.546875 -11.390625 "/></g></g></g><g fill="#ff9e37" fill-opacity="1"><g transform="translate(468.534093, 204.622205)"><g><path d="M 11.109375 -21.515625 C 12.648438 -21.515625 13.96875 -21.234375 15.0625 -20.671875 C 16.15625 -20.109375 16.976562 -19.316406 17.53125 -18.296875 C 18.09375 -17.285156 18.375 -16.109375 18.375 -14.765625 C 18.375 -13.421875 18.09375 -12.242188 17.53125 -11.234375 C 16.976562 -10.222656 16.15625 -9.429688 15.0625 -8.859375 C 13.96875 -8.296875 12.648438 -8.015625 11.109375 -8.015625 L 7.046875 -8.015625 L 7.046875 0 L 2.796875 0 L 2.796875 -21.515625 Z M 10.546875 -11.390625 C 12.910156 -11.390625 14.09375 -12.515625 14.09375 -14.765625 C 14.09375 -17.015625 12.910156 -18.140625 10.546875 -18.140625 L 7.046875 -18.140625 L 7.046875 -11.390625 Z M 10.546875 -11.390625 "/></g></g></g><g fill="#ff9e37" fill-opacity="1"><g transform="translate(488.18085, 204.622205)"><g><path d="M 7.046875 -21.515625 L 7.046875 -3.5625 L 16.71875 -3.5625 L 16.71875 0 L 2.796875 0 L 2.796875 -21.515625 Z M 7.046875 -21.515625 "/></g></g></g><g fill="#ff9e37" fill-opacity="1"><g transform="translate(505.592348, 204.622205)"><g><path d="M 7.046875 0 L 2.796875 0 L 2.796875 -21.515625 L 7.046875 -21.515625 Z M 7.046875 0 "/></g></g></g><g fill="#ff9e37" fill-opacity="1"><g transform="translate(515.445161, 204.622205)"><g><path d="M 7.046875 -9.453125 L 7.046875 -3.5625 L 17.328125 -3.5625 L 17.328125 0 L 2.796875 0 L 2.796875 -21.515625 L 17.09375 -21.515625 L 17.09375 -17.953125 L 7.046875 -17.953125 L 7.046875 -12.921875 L 15.828125 -12.921875 L 15.828125 -9.453125 Z M 7.046875 -9.453125 "/></g></g></g><g fill="#ff9e37" fill-opacity="1"><g transform="translate(533.930206, 204.622205)"><g><path d="M 2.796875 0 L 2.796875 -21.515625 L 11.4375 -21.515625 C 13.664062 -21.515625 15.34375 -21 16.46875 -19.96875 C 17.601562 -18.945312 18.171875 -17.535156 18.171875 -15.734375 C 18.171875 -14.429688 17.835938 -13.359375 17.171875 -12.515625 C 16.515625 -11.679688 15.53125 -11.046875 14.21875 -10.609375 L 14.21875 -10.296875 C 14.894531 -10.003906 15.441406 -9.566406 15.859375 -8.984375 C 16.273438 -8.410156 16.671875 -7.554688 17.046875 -6.421875 L 19.1875 0 L 14.8125 0 L 12.71875 -6.4375 C 12.5 -7.082031 12.253906 -7.582031 11.984375 -7.9375 C 11.710938 -8.300781 11.367188 -8.5625 10.953125 -8.71875 C 10.535156 -8.882812 9.992188 -8.96875 9.328125 -8.96875 L 7.046875 -8.96875 L 7.046875 0 Z M 10.921875 -12.328125 C 12.984375 -12.328125 14.015625 -13.289062 14.015625 -15.21875 C 14.015625 -17.164062 12.984375 -18.140625 10.921875 -18.140625 L 7.046875 -18.140625 L 7.046875 -12.328125 Z M 10.921875 -12.328125 "/></g></g></g></svg>